<svg xmlns="http://www.w3.org/2000/svg" viewBox="0 0 512 512"><path d="M352 112h-40V96h16c4.4 0 8-3.6 8-8v-8h.3c-.1-5.5-1.1-10.9-.3-16.3V56c0-4.4-3.6-8-8-8h-16V24c0-13.3-10.7-24-24-24H112C98.7 0 88 10.7 88 24v24H72c-4.4 0-8 3.6-8 8v6.9c.2.8.3 1.6.3 2.5 0 5.7-.3 11.3-.3 17V88c0 4.4 3.6 8 8 8h16v16H48c-4.4 0-8 3.6-8 8v288c0 2.1.8 4.2 2.3 5.7l48 48c1.5 1.5 3.5 2.3 5.7 2.3h256c4.4 0 8-3.6 8-8V120c0-4.4-3.6-8-8-8zM104 24c0-4.4 3.6-8 8-8h176c4.4 0 8 3.6 8 8v24H104V24zM80 80V64h240v16H80zm216 16v16H104V96h192zM88 436.7L67.3 416H88v20.7zM344 448H104v-40c0-4.4-3.6-8-8-8H56V128h288v320z"/><path d="M96 208h32c4.4 0 8-3.6 8-8v-32c0-4.4-3.6-8-8-8H96c-4.4 0-8 3.6-8 8v32c0 4.4 3.6 8 8 8zm8-32h16v16h-16v-16zm-8 112h32c4.4 0 8-3.6 8-8v-32c0-4.4-3.6-8-8-8H96c-4.4 0-8 3.6-8 8v32c0 4.4 3.6 8 8 8zm8-32h16v16h-16v-16zm32 104v-32c0-4.4-3.6-8-8-8H96c-4.4 0-8 3.6-8 8v32c0 4.4 3.6 8 8 8h32c4.4 0 8-3.6 8-8zm-16-8h-16v-16h16v16zm48-192h128v16H168zm0 32h80v16h-80zm96 0h16v16h-16zm-96 48h128v16H168zm0 32h80v16h-80zm96 0h16v16h-16zm-96 48h128v16H168zm0 32h80v16h-80zm96 0h16v16h-16zm-96 48h144v16H168z"/></svg>