<svg xmlns="http://www.w3.org/2000/svg" viewBox="0 0 405.456 405.456"><path d="M74.134 64.147c-4.985.078-9.911 2.163-13.438 5.688l-55 55C2.096 128.432 0 133.492 0 138.583s2.096 10.151 5.697 13.75l183.281 183.281c3.599 3.601 8.659 5.697 13.75 5.697s10.151-2.096 13.75-5.697l183.281-183.281c3.601-3.599 5.697-8.659 5.697-13.75s-2.096-10.151-5.697-13.75l-55-55c-3.598-3.591-8.651-5.681-13.734-5.681s-10.136 2.09-13.734 5.681L202.728 184.397 88.166 69.833c-3.667-3.664-8.848-5.763-14.032-5.686z" fill="#222"/></svg>