<svg id="Capa_1" xmlns="http://www.w3.org/2000/svg" viewBox="0 0 483.3 483.3"><style>.st1{fill:#fff}</style><path d="M417.1 415.6h-351C29.6 415.6 0 386 0 349.5V123.9c0-36.5 29.6-66.2 66.2-66.2h320.9c53.1 0 96.2 43.1 96.2 96.2v195.5c0 36.6-29.6 66.2-66.2 66.2z" fill="#f7c645"/><path class="st1" d="M424.3 57.8H59.1C26.5 57.8 0 84.2 0 116.8v249.6c0 32.6 26.5 59.1 59.1 59.1h365.1c32.6 0 59.1-26.5 59.1-59.1V117c.1-32.7-26.4-59.2-59-59.2zm32.1 308.7c0 17.7-14.4 32.1-32.1 32.1H59.1c-17.7 0-32.1-14.4-32.1-32.1V117c0-17.7 14.4-32.1 32.1-32.1h365.1c17.7 0 32.1 14.4 32.1 32.1l.1 249.5z"/><path class="st1" d="M304.8 238.6l118.2-106c5.5-5 6-13.5 1-19.1-5-5.5-13.5-6-19.1-1l-163 146.3-31.8-28.4c-.1-.1-.2-.2-.2-.3-.7-.7-1.4-1.3-2.2-1.9L78.3 112.3c-5.6-5-14.1-4.5-19.1 1.1s-4.5 14.1 1.1 19.1l119.6 106.9L60.8 351c-5.4 5.1-5.7 13.6-.6 19.1 2.7 2.8 6.3 4.3 9.9 4.3 3.3 0 6.6-1.2 9.2-3.6l120.9-113.1L233 287c2.6 2.3 5.8 3.4 9 3.4s6.5-1.2 9-3.5l33.7-30.2 120.2 114.2c2.6 2.5 6 3.7 9.3 3.7 3.6 0 7.1-1.4 9.8-4.2 5.1-5.4 4.9-14-.5-19.1L304.8 238.6z"/></svg>