<svg xmlns="http://www.w3.org/2000/svg" viewBox="0 0 512 512"><path d="M416 32h-80.001l-.02.001C328.674 22.292 317.059 16 304 16h-20.39C277.966 6.242 267.481 0 256 0s-21.966 6.242-27.61 16H208c-13.059 0-24.674 6.292-31.979 16.001L176 32H96c-22.056 0-40 17.944-40 40v400c0 22.056 17.944 40 40 40h320c22.056 0 40-17.944 40-40V72c0-22.056-17.944-40-40-40zM184 56c0-13.233 10.767-24 24-24h25.47a8.001 8.001 0 0 0 7.538-5.32C243.278 20.292 249.303 16 256 16s12.722 4.292 14.992 10.68A8.001 8.001 0 0 0 278.53 32H304c13.233 0 24 10.767 24 24v24H184V56zm256 416c0 13.233-10.767 24-24 24H96c-13.233 0-24-10.767-24-24V72c0-13.233 10.767-24 24-24h72.805a40.028 40.028 0 0 0-.805 8v32a8 8 0 0 0 8 8h160a8 8 0 0 0 8-8V56c0-2.739-.278-5.414-.805-8H416c13.233 0 24 10.767 24 24v400z"/><path d="M416 64h-48a8 8 0 0 0 0 16h40v384H104V80h40a8 8 0 0 0 0-16H96a8 8 0 0 0-8 8v400a8 8 0 0 0 8 8h320a8 8 0 0 0 8-8V72a8 8 0 0 0-8-8zM256 32c-2.11 0-4.17.85-5.66 2.34A8.05 8.05 0 0 0 248 40c0 2.1.85 4.17 2.34 5.66A8.05 8.05 0 0 0 256 48c2.1 0 4.17-.85 5.66-2.34A8.05 8.05 0 0 0 264 40c0-2.11-.85-4.17-2.34-5.66A8.064 8.064 0 0 0 256 32z"/><path d="M130.343 186.343a7.998 7.998 0 0 0 0 11.313l24 24c1.562 1.562 3.609 2.343 5.657 2.343s4.095-.781 5.657-2.343l40-40a7.998 7.998 0 0 0 0-11.313 8 8 0 0 0-11.313 0L160 204.686l-18.343-18.343a8 8 0 0 0-11.314 0zm75.314 72a8 8 0 0 0-11.313 0L160 292.686l-18.343-18.343a8 8 0 0 0-11.313 0 7.998 7.998 0 0 0 0 11.313l24 24c1.562 1.562 3.609 2.343 5.657 2.343s4.095-.781 5.657-2.343l40-40a8 8 0 0 0-.001-11.313zm-11.314 88L160 380.686l-18.343-18.343a8 8 0 0 0-11.313 0 7.998 7.998 0 0 0 0 11.313l24 24c1.562 1.562 3.609 2.343 5.657 2.343s4.095-.781 5.657-2.343l40-40a7.998 7.998 0 0 0 0-11.313 8.002 8.002 0 0 0-11.315 0zM240 200h136a8 8 0 0 0 0-16H240a8 8 0 0 0 0 16zm0 88h136a8 8 0 0 0 0-16H240a8 8 0 0 0 0 16zm0 88h136a8 8 0 0 0 0-16H240a8 8 0 0 0 0 16z"/></svg>