<svg xmlns="http://www.w3.org/2000/svg" viewBox="0 0 512 512"><path d="M424 127.4c-1.8-6.8-5.5-14.1-8.3-20.5C383 28.2 311.4 0 253.6 0 176.2 0 91 51.9 79.6 158.8v21.8c0 .9.3 9.1.8 13.2C86.8 244.8 127 299 157 350c32.3 54.6 65.8 108.3 99.1 162 20.5-35 40.9-70.5 60.9-104.7 5.5-10 11.8-20 17.2-29.6 3.6-6.4 10.6-12.7 13.8-18.7 32.3-59.2 84.3-118.8 84.3-177.5v-24.1c.1-6.3-7.8-28.6-8.3-30zM255 237.1c-22.7 0-47.6-11.4-59.9-42.8-1.8-5-1.7-15-1.7-15.9v-14.1c0-40 34-58.2 63.6-58.2 36.4 0 64.6 29.1 64.6 65.5s-30.2 65.5-66.6 65.5z" fill="#32495b"/><circle cx="254.5" cy="168.6" r="68.6" fill="#6ac2ce"/></svg>