<svg xmlns="http://www.w3.org/2000/svg" viewBox="0 0 487.1 487.1"><path d="M342.3 138H385L321.7 29.4c-5.1-8.8-16.4-11.8-25.2-6.6-8.8 5.1-11.8 16.4-6.6 25.2l52.4 90zM197.4 48c5.1-8.8 2.2-20.1-6.6-25.2s-20.1-2.2-25.2 6.6l-63.3 108.7H145L197.4 48zm258.3 123.3H31.3C14 171.3 0 185.3 0 202.6v34.7c0 17.3 14 31.3 31.3 31.3h9.8l30.2 163.7c3.8 19.3 21.4 34.6 39.7 34.6h258.8c18.3 0 35.9-15.3 39.7-34.6l30.4-163.8h15.9c17.3 0 31.3-14 31.3-31.3v-34.7c-.1-17.2-14.1-31.2-31.4-31.2zM172.8 334.9v70.6c0 10.1-8.2 17.7-17.7 17.7-10.1 0-17.7-8.2-17.7-17.7v-99c0-10.1 8.2-17.7 17.7-17.7 10.1 0 17.7 8.2 17.7 17.7v28.4zm56.8 0v70.6c0 10.1-8.2 17.7-17.7 17.7-10.1 0-17.7-8.2-17.7-17.7v-99c0-10.1 8.2-17.7 17.7-17.7s17.7 8.2 17.7 17.7v28.4zm57.1 41v29.6c0 9.5-7.6 17.7-17.7 17.7-9.5 0-17.7-7.6-17.7-17.7v-99c0-9.5 8.2-17.7 17.7-17.7s17.7 7.6 17.7 17.7v69.4zm56.8 0v29.6c0 9.5-7.6 17.7-17.7 17.7-9.5 0-17.7-7.6-17.7-17.7v-99c0-9.5 7.6-17.7 17.7-17.7 9.5 0 17.7 7.6 17.7 17.7v69.4z" fill="#ffc40f"/></svg>