<svg xmlns="http://www.w3.org/2000/svg" viewBox="0 0 432.072 432.072"><path d="M183.983 209.972c23.96 0 47.357-14.538 65.881-40.936 16.347-23.296 26.106-52.099 26.106-77.048C275.971 41.266 234.706 0 183.983 0c-50.722 0-91.988 41.266-91.988 91.988 0 24.949 9.759 53.752 26.107 77.048 18.524 26.398 41.922 40.936 65.881 40.936zm0-194.972c42.451 0 76.988 34.537 76.988 76.988 0 21.655-8.96 47.876-23.385 68.432-15.408 21.958-34.946 34.552-53.603 34.552-18.657 0-38.194-12.594-53.603-34.552-14.424-20.556-23.385-46.778-23.385-68.432 0-42.451 34.537-76.988 76.988-76.988zm38.684 376.718c-.079-.186-.06-.139-.026-.054-.379-.879-.915-1.707-1.604-2.376-2.816-2.897-7.784-2.901-10.6 0-4.193 4.07-1.93 11.346 3.653 12.611 5.866 1.328 10.755-4.644 8.59-10.141a.788.788 0 0 0-.013-.04z"/><path d="M379.782 265.675c-19.546-19.546-45.394-29.015-71.064-28.461-15.071-18.657-34.328-33.887-55.925-44.168a7.5 7.5 0 0 0-8.52 1.462c-18.07 18.023-38.919 27.55-60.293 27.55-21.377 0-42.222-9.526-60.282-27.549a7.498 7.498 0 0 0-8.522-1.462c-26.963 12.838-49.783 32.917-65.992 58.067-16.652 25.836-25.454 55.811-25.454 86.685v.13c0 2.116.894 4.134 2.461 5.556 43.279 39.249 99.316 60.864 157.789 60.864 3.088 0 6.209-.061 9.277-.18a7.5 7.5 0 1 0-.582-14.988c-2.874.111-5.799.168-8.695.168-53.621 0-105.056-19.418-145.215-54.746.583-26.855 8.515-52.846 23.027-75.363 13.766-21.359 32.788-38.684 55.228-50.357 20.046 18.456 43.095 28.175 66.961 28.175 23.862 0 46.914-9.72 66.968-28.175 14.844 7.733 28.341 18.08 39.734 30.395-17.889 3.753-34.924 12.535-48.785 26.397-38.015 38.015-38.015 99.87 0 137.886 19.008 19.008 43.976 28.511 68.943 28.511 24.968 0 49.936-9.503 68.943-28.511 18.416-18.416 28.557-42.9 28.557-68.943-.002-26.043-10.143-50.528-28.559-68.943zm3.614 29.621l-50.431 50.431-11.314-11.314 52.582-52.582a82.362 82.362 0 0 1 9.163 13.465zM363.62 271.23l-52.576 52.576-11.314-11.314 50.403-50.403a81.946 81.946 0 0 1 13.487 9.141zm-44.61 81.756l-39.337 12.797 12.798-39.336 26.539 26.539zm50.165 39.969c-32.167 32.166-84.506 32.166-116.673 0-32.167-32.167-32.167-84.506 0-116.673 16.085-16.085 37.208-24.125 58.336-24.125a82.946 82.946 0 0 1 24.348 3.666l-51.367 51.367a7.5 7.5 0 0 0-1.829 2.983l-21.14 64.98a7.5 7.5 0 0 0 9.452 9.453l64.98-21.14a7.49 7.49 0 0 0 2.983-1.829l51.415-51.415a82.765 82.765 0 0 1 3.657 24.396c.002 22.036-8.579 42.754-24.162 58.337z"/></svg>