<svg xmlns="http://www.w3.org/2000/svg" viewBox="0 0 512 512"><path d="M501.551 235.102h-41.796v-41.719c0-28.851-23.474-52.321-52.329-52.321H52.329c-11.802 0-22.667 3.969-31.431 10.578V99.23c0-17.265 14.1-31.311 31.431-31.311h355.097c17.332 0 31.431 14.085 31.431 31.398v16.158c0 5.77 4.679 10.449 10.449 10.449s10.449-4.679 10.449-10.449V99.316c0-28.835-23.474-52.296-52.329-52.296H52.329C23.474 47.02 0 70.441 0 99.23v313.486c0 28.819 23.474 52.264 52.329 52.264h355.097c28.855 0 52.329-23.417 52.329-52.202v-73.186h41.796c5.77 0 10.449-4.679 10.449-10.449v-83.592c0-5.77-4.679-10.449-10.449-10.449zm-62.694 177.676c0 17.261-14.1 31.304-31.431 31.304H52.329c-17.331 0-31.431-14.07-31.431-31.366v-219.39c0-17.296 14.1-31.367 31.431-31.367h355.097c17.332 0 31.431 14.097 31.431 31.424v41.719h-83.592c-5.77 0-10.449 4.679-10.449 10.449v83.592c0 5.77 4.679 10.449 10.449 10.449h83.592v73.186zm52.245-94.084H365.714V256h125.388v62.694z"/><path d="M62.694 88.816h344.973v20.898H62.694z"/></svg>