<svg width="1024" height="511" xmlns="http://www.w3.org/2000/svg" xmlns:xlink="http://www.w3.org/1999/xlink"><defs><path id="a" d="M0 0h1024v511H0z"/><linearGradient x1="0%" y1="0%" y2="98.529%" id="c"><stop stop-color="#472BC7" offset="0%"/><stop stop-color="#0B1C61" offset="100%"/></linearGradient><linearGradient x1="100%" y1="50%" x2="0%" y2="50%" id="d"><stop stop-color="#FFF" stop-opacity="0" offset="0%"/><stop stop-color="#06CCE2" offset="100%"/><stop stop-color="#FFF" offset="100%"/></linearGradient></defs><g fill="none" fill-rule="evenodd"><mask id="b" fill="#fff"><use xlink:href="#a"/></mask><g mask="url(#b)"><path d="M89 263h1068v561.317c-137.869-44.186-243.79-64.235-317.764-60.145-220.593 12.194-245.063 64.098-439.304 72.042C280.926 841.081 177.282 823.337 89 782.98V263z" fill="url(#c)" transform="translate(-128 -329)"/><g transform="translate(-128 -329)"><rect fill="#FFF" opacity=".1" transform="rotate(-30 934.535 473.63)" x="570.076" y="399.393" width="728.919" height="148.473" rx="74.237"/><rect fill="url(#d)" opacity=".5" transform="rotate(-30 800.37 398.01)" x="755.853" y="392.442" width="89.034" height="11.135" rx="5.568"/><rect fill="url(#d)" opacity=".5" transform="rotate(-30 645.302 518.034)" x="608.205" y="510.478" width="74.195" height="15.113" rx="7.556"/><rect fill="url(#d)" transform="rotate(-30 934.663 719.958)" x="897.565" y="712.402" width="74.195" height="15.113" rx="7.556"/><rect fill="#FFF" opacity=".05" transform="rotate(-30 353.729 246.623)" x="-10.731" y="172.386" width="728.919" height="148.473" rx="74.237"/><rect fill="#FFF" opacity=".1" transform="rotate(-30 1307.134 530.95)" x="942.675" y="456.713" width="728.919" height="148.473" rx="74.237"/><rect fill="#FFF" opacity=".05" transform="rotate(-30 1095.679 516.844)" x="731.219" y="442.608" width="728.919" height="148.473" rx="74.237"/></g><g fill="#FFF"><path d="M-39 385c67.263.845 109.657 24.783 216.411 54.613 71.17 19.886 186.598 26.82 346.283 20.802-214.746 67.018-402.31 64.66-562.694-7.073" opacity=".1"/><path d="M35.51 481.133c131.642-29.596 242.005-47.559 331.087-53.889 89.083-6.33 196.129-3.446 321.139 8.654-35.565.955-125.175 18.019-268.83 51.19-143.656 33.172-271.454 31.187-383.396-5.955z" opacity=".1"/><path d="M736.628 431.99c62.974-20.397 173.03-31.107 291.745-10.496v72.945c-124.588-38.427-221.836-59.244-291.745-62.45z" opacity=".2"/></g></g></g></svg>