<svg width="1024" height="511" xmlns="http://www.w3.org/2000/svg" xmlns:xlink="http://www.w3.org/1999/xlink"><defs><path id="a" d="M0 0h1024v511H0z"/><linearGradient x1="0%" y1="0%" x2="97.263%" y2="95.833%" id="c"><stop stop-color="#00C06D" offset="0%"/><stop stop-color="#00AAA6" offset="100%"/></linearGradient></defs><g fill="none" fill-rule="evenodd"><mask id="b" fill="#fff"><use xlink:href="#a"/></mask><g mask="url(#b)"><path d="M0 0h1068v561.317c-137.869-44.186-243.79-64.235-317.764-60.145-220.593 12.194-245.063 64.098-439.304 72.042C191.926 578.081 88.282 560.337 0 519.98V0z" fill="url(#c)" transform="translate(-39 -65)"/><g fill="#FFF"><path d="M-39 386c67.263.845 109.657 24.783 216.411 54.613 71.17 19.886 186.598 26.82 346.283 20.802-214.746 67.018-402.31 64.66-562.694-7.073" opacity=".1"/><path d="M35.51 482.133c131.642-29.596 242.005-47.559 331.087-53.889 89.083-6.33 196.129-3.446 321.139 8.654-35.565.955-125.175 18.019-268.83 51.19-143.656 33.172-271.454 31.187-383.396-5.955z" opacity=".1"/><path d="M736.628 432.99c62.974-20.397 173.03-31.107 291.745-10.496v72.945c-124.588-38.427-221.836-59.244-291.745-62.45z" opacity=".2"/></g></g></g></svg>