<?xml version="1.0" standalone="no"?>
<!DOCTYPE svg PUBLIC "-//W3C//DTD SVG 20010904//EN"
 "http://www.w3.org/TR/2001/REC-SVG-20010904/DTD/svg10.dtd">
<svg version="1.0" xmlns="http://www.w3.org/2000/svg"
 width="1120.000000pt" height="1120.000000pt" viewBox="0 0 1120.000000 1120.000000"
 preserveAspectRatio="xMidYMid meet">
<metadata>
Created by potrace 1.11, written by Peter Selinger 2001-2013
</metadata>
<g transform="translate(0.000000,1120.000000) scale(0.100000,-0.100000)"
fill="#000000" stroke="none">
<path d="M5385 8896 c-141 -24 -277 -66 -383 -120 -131 -67 -1875 -1085 -1941
-1133 -210 -155 -390 -406 -469 -653 -60 -188 -57 -115 -57 -1405 l0 -1180 22
-90 c13 -49 25 -99 28 -110 4 -17 -99 -79 -777 -465 -994 -566 -943 -536 -978
-588 -95 -142 5 -349 178 -368 51 -6 43 -9 204 85 51 30 429 247 841 483 l747
428 113 -113 c61 -62 146 -136 187 -164 64 -43 852 -503 1636 -954 379 -218
521 -267 809 -276 221 -8 383 18 558 90 73 30 1765 1001 1942 1115 311 199
521 513 592 884 17 86 18 180 18 1218 0 894 -3 1140 -13 1200 -15 83 -43 187
-73 269 -16 44 -18 57 -7 66 7 7 218 131 468 275 250 144 638 368 862 497 223
129 419 246 434 261 90 89 84 246 -13 331 -57 51 -129 70 -199 52 -30 -8 -374
-201 -921 -517 -481 -278 -880 -507 -888 -510 -9 -4 -42 19 -82 55 -38 34 -99
83 -138 110 -77 53 -1795 1051 -1903 1105 -88 44 -205 84 -317 108 -118 25
-369 33 -480 14z m439 -491 c135 -39 190 -68 736 -385 278 -161 665 -385 860
-498 195 -113 383 -224 416 -248 158 -111 274 -293 322 -503 16 -69 17 -170
17 -1161 0 -1181 1 -1148 -57 -1303 -57 -148 -180 -303 -314 -394 -61 -42
-1722 -1006 -1804 -1048 -222 -113 -515 -125 -744 -32 -45 18 -378 205 -741
416 -363 211 -774 449 -914 529 -199 115 -270 162 -327 215 -82 77 -160 192
-204 300 -60 151 -60 146 -60 1311 0 675 4 1085 10 1126 35 221 176 440 365
567 96 65 1815 1057 1875 1082 156 67 390 78 564 26z"/>
</g>
</svg>
