<svg xmlns="http://www.w3.org/2000/svg" viewBox="0 0 362.61 304"><defs><style>.cls-1{fill:#f85068;}.cls-2{fill:#7c397f;}</style></defs><title>Asset 1</title><g id="Layer_2" data-name="Layer 2"><g id="Layer_1-2" data-name="Layer 1"><rect class="cls-1" x="1.5" y="109" width="121" height="3"/><rect class="cls-1" x="1.5" y="286.93" width="121" height="3"/><path class="cls-2" d="M109.21,304H14.79A14.81,14.81,0,0,1,0,289.21V95.65A14.81,14.81,0,0,1,14.79,80.86h94.42A14.81,14.81,0,0,1,124,95.65V289.21A14.81,14.81,0,0,1,109.21,304ZM14.79,83.86A11.8,11.8,0,0,0,3,95.65V289.21A11.8,11.8,0,0,0,14.79,301h94.42A11.8,11.8,0,0,0,121,289.21V95.65a11.8,11.8,0,0,0-11.79-11.79Z"/><path class="cls-2" d="M347.81,304H154.26a14.81,14.81,0,0,1-14.79-14.79V14.79A14.81,14.81,0,0,1,154.26,0H347.81a14.81,14.81,0,0,1,14.79,14.79V289.21A14.81,14.81,0,0,1,347.81,304ZM154.26,3a11.8,11.8,0,0,0-11.79,11.79V289.21A11.8,11.8,0,0,0,154.26,301H347.81a11.8,11.8,0,0,0,11.79-11.79V14.79A11.8,11.8,0,0,0,347.81,3Z"/><path class="cls-2" d="M86.62,97.93H37.38a1.5,1.5,0,0,1,0-3H86.62a1.5,1.5,0,0,1,0,3Z"/><path class="cls-1" d="M62,174.32a4.83,4.83,0,0,1-2.41-.65L52,169.31a4.84,4.84,0,0,1-2.41-4.18v-8.73A4.83,4.83,0,0,1,52,152.24l7.56-4.36a4.82,4.82,0,0,1,4.82,0l7.56,4.36a4.83,4.83,0,0,1,2.41,4.18v8.73a4.84,4.84,0,0,1-2.41,4.18l-7.56,4.36A4.83,4.83,0,0,1,62,174.32Z"/><path class="cls-2" d="M62,175.82A6.33,6.33,0,0,1,58.8,175l-7.56-4.36a6.34,6.34,0,0,1-3.16-5.47v-8.73a6.34,6.34,0,0,1,3.16-5.47l7.56-4.36a6.43,6.43,0,0,1,6.32,0l7.56,4.36a6.34,6.34,0,0,1,3.16,5.47v8.73a6.34,6.34,0,0,1-3.16,5.47L65.12,175A6.33,6.33,0,0,1,62,175.82Zm0-27.09a3.32,3.32,0,0,0-1.66.44l-7.56,4.36a3.33,3.33,0,0,0-1.66,2.88v8.73A3.33,3.33,0,0,0,52.74,168l7.56,4.36a3.38,3.38,0,0,0,3.32,0L71.17,168a3.33,3.33,0,0,0,1.66-2.88v-8.73a3.33,3.33,0,0,0-1.66-2.88l-7.56-4.36A3.32,3.32,0,0,0,62,148.73Z"/><path class="cls-2" d="M42,173.53a1.5,1.5,0,0,1-.75-2.8l7.23-4.17a1.5,1.5,0,1,1,1.5,2.6l-7.23,4.17A1.49,1.49,0,0,1,42,173.53Z"/><path class="cls-2" d="M74.34,154.85a1.5,1.5,0,0,1-.75-2.8l7.69-4.44a1.5,1.5,0,0,1,1.5,2.6l-7.69,4.44A1.49,1.49,0,0,1,74.34,154.85Z"/><path class="cls-1" d="M78.18,189.89H45.82a1.5,1.5,0,1,1,0-3H78.18a1.5,1.5,0,1,1,0,3Z"/><path class="cls-2" d="M92.25,204H31.75a1.5,1.5,0,1,1,0-3h60.5a1.5,1.5,0,0,1,0,3Z"/><path class="cls-2" d="M92.25,211H31.75a1.5,1.5,0,1,1,0-3h60.5a1.5,1.5,0,1,1,0,3Z"/><path class="cls-2" d="M78.18,218H45.82a1.5,1.5,0,1,1,0-3H78.18a1.5,1.5,0,1,1,0,3Z"/><rect class="cls-1" x="40.85" y="230.6" width="42.3" height="12.66" rx="6.33" ry="6.33"/><path class="cls-1" d="M251,124.43a4.83,4.83,0,0,1-2.41-.65L241,119.42a4.84,4.84,0,0,1-2.41-4.18v-8.73a4.83,4.83,0,0,1,2.41-4.18L248.55,98a4.82,4.82,0,0,1,4.82,0l7.56,4.36a4.83,4.83,0,0,1,2.41,4.18v8.73a4.84,4.84,0,0,1-2.41,4.18l-7.56,4.36A4.83,4.83,0,0,1,251,124.43Z"/><path class="cls-2" d="M251,125.93a6.33,6.33,0,0,1-3.16-.85l-7.56-4.36a6.34,6.34,0,0,1-3.16-5.47v-8.73a6.34,6.34,0,0,1,3.16-5.47l7.56-4.36a6.43,6.43,0,0,1,6.32,0l7.56,4.36a6.34,6.34,0,0,1,3.16,5.47v8.73a6.34,6.34,0,0,1-3.16,5.47l-7.56,4.36A6.32,6.32,0,0,1,251,125.93Zm0-27.09a3.33,3.33,0,0,0-1.66.45l-7.56,4.36a3.33,3.33,0,0,0-1.66,2.88v8.73a3.33,3.33,0,0,0,1.66,2.88l7.56,4.36a3.38,3.38,0,0,0,3.32,0l7.56-4.36a3.33,3.33,0,0,0,1.66-2.88v-8.73a3.33,3.33,0,0,0-1.66-2.88l-7.56-4.36A3.34,3.34,0,0,0,251,98.84Z"/><path class="cls-2" d="M231,123.64a1.5,1.5,0,0,1-.75-2.8l7.23-4.17a1.5,1.5,0,1,1,1.5,2.6l-7.23,4.17A1.49,1.49,0,0,1,231,123.64Z"/><path class="cls-2" d="M263.34,105a1.5,1.5,0,0,1-.75-2.8l7.69-4.44a1.5,1.5,0,0,1,1.5,2.6l-7.69,4.44A1.49,1.49,0,0,1,263.34,105Z"/><path class="cls-1" d="M267.18,140H234.82a1.5,1.5,0,0,1,0-3h32.36a1.5,1.5,0,0,1,0,3Z"/><path class="cls-2" d="M281.25,154.07h-60.5a1.5,1.5,0,1,1,0-3h60.5a1.5,1.5,0,0,1,0,3Z"/><path class="cls-2" d="M281.25,161.1h-60.5a1.5,1.5,0,0,1,0-3h60.5a1.5,1.5,0,0,1,0,3Z"/><path class="cls-2" d="M267.18,168.14H234.82a1.5,1.5,0,0,1,0-3h32.36a1.5,1.5,0,0,1,0,3Z"/><rect class="cls-1" x="229.85" y="180.71" width="42.3" height="12.66" rx="6.33" ry="6.33"/><path class="cls-1" d="M352.61,270.71H149.39V20H352.61Zm-200.21-3H349.61V23H152.39Z"/><path class="cls-2" d="M251,294.41a9.09,9.09,0,1,1,9.09-9.09A9.1,9.1,0,0,1,251,294.41Zm0-15.18a6.09,6.09,0,1,0,6.09,6.09A6.1,6.1,0,0,0,251,279.23Z"/></g></g></svg>