<?xml version="1.0" encoding="utf-8"?>
<!-- Generator: Adobe Illustrator 21.0.0, SVG Export Plug-In . SVG Version: 6.00 Build 0)  -->
<svg version="1.1" id="Layer_1" xmlns="http://www.w3.org/2000/svg" xmlns:xlink="http://www.w3.org/1999/xlink" x="0px" y="0px"
	 viewBox="0 0 318 352.9" style="enable-background:new 0 0 318 352.9;" xml:space="preserve">
<style type="text/css">
	.st0{fill:#F85068;}
</style>
<g>
	<path class="st0" d="M159.1,348.4c-6.6,0-13.1-1.7-19-5.1l-116-67c-11.7-6.8-19-19.3-19-32.9v-134c0-13.5,7.3-26.1,19-32.9l116-67
		c11.7-6.8,26.2-6.8,37.9,0l116,67c11.7,6.8,19,19.3,19,32.9v134c0,13.5-7.3,26.1-19,32.9l-116,67
		C172.1,346.7,165.6,348.4,159.1,348.4z M159.1,7.6c-6,0-12.1,1.6-17.5,4.7l-116,67C14.8,85.5,8.1,97.1,8.1,109.6v134
		c0,12.4,6.7,24,17.5,30.3l116,67c10.8,6.2,24.2,6.2,34.9,0l116-67c10.8-6.2,17.5-17.8,17.5-30.3v-134c0-12.4-6.7-24-17.5-30.3
		l-116-67C171.1,9.1,165.1,7.6,159.1,7.6z"/>
</g>
</svg>
