<?xml version="1.0" encoding="utf-8"?>
<!-- Generator: Adobe Illustrator 21.0.0, SVG Export Plug-In . SVG Version: 6.00 Build 0)  -->
<svg version="1.1" id="Layer_1" xmlns="http://www.w3.org/2000/svg" xmlns:xlink="http://www.w3.org/1999/xlink" x="0px" y="0px"
	 viewBox="0 0 124.6 136" style="enable-background:new 0 0 124.6 136;" xml:space="preserve">
<style type="text/css">
	.st0{opacity:0.95;fill:#FFFFFF;}
	.st1{fill:none;stroke:#7C397F;stroke-width:3;stroke-linecap:round;stroke-linejoin:round;stroke-miterlimit:10;}
</style>
<g>
	<path class="st0" d="M62.3,134.1c-4.1,0-8.2-1.1-11.8-3.2l-36.9-21.3c-7.3-4.2-11.8-12-11.8-20.4V46.7c0-8.4,4.5-16.2,11.8-20.4
		L50.5,5c3.6-2.1,7.6-3.2,11.8-3.2C66.4,1.9,70.5,3,74,5l36.9,21.3c7.3,4.2,11.8,12,11.8,20.4v42.6c0,8.4-4.5,16.2-11.8,20.4L74,131
		C70.5,133,66.4,134.1,62.3,134.1z"/>
	<path class="st1" d="M62.3,134.1c-4.1,0-8.2-1.1-11.8-3.2l-36.9-21.3c-7.3-4.2-11.8-12-11.8-20.4V46.7c0-8.4,4.5-16.2,11.8-20.4
		L50.5,5c3.6-2.1,7.6-3.2,11.8-3.2C66.4,1.9,70.5,3,74,5l36.9,21.3c7.3,4.2,11.8,12,11.8,20.4v42.6c0,8.4-4.5,16.2-11.8,20.4L74,131
		C70.5,133,66.4,134.1,62.3,134.1z"/>
</g>
</svg>
