<svg xmlns="http://www.w3.org/2000/svg" viewBox="0 0 3463.42 314.36"><defs><style>.cls-1{fill:#f5f5f5;}</style></defs><title>Asset 1</title><g id="Layer_2" data-name="Layer 2"><g id="Layer_1-2" data-name="Layer 1"><path class="cls-1" d="M3461.42,152.14H1979.26a62.33,62.33,0,0,0-8.13-26.18l-54.69-94.73A62.44,62.44,0,0,0,1862.36,0H1753a62.62,62.62,0,0,0-54.08,31.22L1644.2,126a62.33,62.33,0,0,0-8.13,26.18H2a2,2,0,0,0,0,4H1635.88a62.45,62.45,0,0,0,8.32,32.26l54.69,94.73A62.45,62.45,0,0,0,1753,314.35h109.39a62.62,62.62,0,0,0,54.08-31.22l54.69-94.73a62.44,62.44,0,0,0,8.32-32.26h1482a2,2,0,0,0,0-4ZM1967.67,186.4,1913,281.13a58.61,58.61,0,0,1-50.62,29.22H1753a58.45,58.45,0,0,1-50.61-29.22l-54.69-94.73a58.48,58.48,0,0,1-7.73-32,2,2,0,0,0,0-.24s0-.06,0-.09a58.37,58.37,0,0,1,7.71-26.1l54.69-94.73A58.61,58.61,0,0,1,1753,4h109.39A58.45,58.45,0,0,1,1913,33.22L1967.67,128a58.37,58.37,0,0,1,7.71,26.09s0,.06,0,.09a2,2,0,0,0,0,.25A58.47,58.47,0,0,1,1967.67,186.4Z"/></g></g></svg>