<svg xmlns="http://www.w3.org/2000/svg" viewBox="0 0 3463.42 314.43"><defs><style>.cls-1{fill:#e83f62;}</style></defs><title>Asset 1</title><g id="Layer_2" data-name="Layer 2"><g id="Layer_1-2" data-name="Layer 1"><path class="cls-1" d="M3461.42,151.11l-1482.16,1a62.33,62.33,0,0,0-8.15-26.18l-54.75-94.7A62.45,62.45,0,0,0,1862.3,0h0L1752.87.07a62.62,62.62,0,0,0-54.06,31.26l-54.63,94.77a62.32,62.32,0,0,0-8.11,26.19L2,153.34a2,2,0,0,0,0,4l1633.88-1.05a62.45,62.45,0,0,0,8.34,32.26l54.76,94.7A62.45,62.45,0,0,0,1753,314.43h0l109.39-.07a62.62,62.62,0,0,0,54.06-31.26l54.63-94.77a62.44,62.44,0,0,0,8.3-32.27l1482-1a2,2,0,1,0,0-4ZM1967.69,186.33l-54.63,94.77a58.61,58.61,0,0,1-50.6,29.26l-109.39.07h0a58.45,58.45,0,0,1-50.6-29.19l-54.76-94.7a58.48,58.48,0,0,1-7.75-32,2,2,0,0,0,0-.25s0-.06,0-.09a58.36,58.36,0,0,1,7.7-26.1l54.63-94.77a58.61,58.61,0,0,1,50.59-29.25L1862.27,4h0a58.45,58.45,0,0,1,50.6,29.19l54.75,94.7a58.38,58.38,0,0,1,7.73,26.09s0,.05,0,.08a2,2,0,0,0,0,.23A58.47,58.47,0,0,1,1967.69,186.33Z"/></g></g></svg>