<svg id="Layer_1" data-name="Layer 1" xmlns="http://www.w3.org/2000/svg" viewBox="0 0 134.14 143.13"><defs><style>.cls-1{opacity:0.2;}.cls-2{fill:#7c397f;}</style></defs><title>preloader</title><g class="cls-1"><path class="cls-2" d="M67.07,117.5a1.5,1.5,0,0,1-1.5-1.5v-2.73a1.5,1.5,0,0,1,3,0V116A1.5,1.5,0,0,1,67.07,117.5Zm0-12.73a1.5,1.5,0,0,1-1.5-1.5v-6a1.5,1.5,0,0,1,3,0v6A1.5,1.5,0,0,1,67.07,104.77Z"/></g><g class="cls-1"><path class="cls-2" d="M67.07,47.36a1.5,1.5,0,0,1-1.5-1.5V43.13a1.5,1.5,0,0,1,3,0v2.73A1.5,1.5,0,0,1,67.07,47.36Zm0-12.73a1.5,1.5,0,0,1-1.5-1.5v-6a1.5,1.5,0,0,1,3,0v6A1.5,1.5,0,0,1,67.07,34.63Z"/></g><g class="cls-1"><path class="cls-2" d="M89.33,60.21a1.5,1.5,0,0,1-.75-2.8l5.2-3a1.5,1.5,0,0,1,1.5,2.6l-5.2,3A1.49,1.49,0,0,1,89.33,60.21Zm13.86-8a1.5,1.5,0,0,1-.75-2.8l2.15-1.24a1.5,1.5,0,0,1,1.5,2.6L103.94,52A1.49,1.49,0,0,1,103.19,52.21Z"/></g><g class="cls-1"><path class="cls-2" d="M28.8,95.16a1.5,1.5,0,0,1-.75-2.8l5.2-3a1.5,1.5,0,1,1,1.5,2.6l-5.2,3A1.49,1.49,0,0,1,28.8,95.16Zm13.86-8a1.5,1.5,0,0,1-.75-2.8l2.15-1.24a1.5,1.5,0,1,1,1.5,2.6L43.41,87A1.49,1.49,0,0,1,42.66,87.16Z"/></g><g class="cls-1"><path class="cls-2" d="M44.81,60.21a1.49,1.49,0,0,1-.75-.2l-5.2-3a1.5,1.5,0,1,1,1.5-2.6l5.2,3a1.5,1.5,0,0,1-.75,2.8ZM31,52.21a1.49,1.49,0,0,1-.75-.2l-2.15-1.24a1.5,1.5,0,1,1,1.5-2.6l2.15,1.24a1.5,1.5,0,0,1-.75,2.8Z"/></g><g class="cls-1"><path class="cls-2" d="M105.34,95.16a1.49,1.49,0,0,1-.75-.2l-5.2-3a1.5,1.5,0,0,1,1.5-2.6l5.2,3a1.5,1.5,0,0,1-.75,2.8Zm-13.86-8a1.49,1.49,0,0,1-.75-.2l-2.15-1.24a1.5,1.5,0,1,1,1.5-2.6l2.15,1.24a1.5,1.5,0,0,1-.75,2.8Z"/></g><path class="cls-2" d="M67.07,95.16a9.39,9.39,0,0,1-4.68-1.25L50.06,86.79a9.39,9.39,0,0,1-4.68-8.11V64.45a9.39,9.39,0,0,1,4.68-8.11l12.33-7.12a9.52,9.52,0,0,1,9.36,0l12.33,7.12a9.39,9.39,0,0,1,4.68,8.11V78.68a9.39,9.39,0,0,1-4.68,8.11L71.75,93.91A9.38,9.38,0,0,1,67.07,95.16Zm0-44.19a6.38,6.38,0,0,0-3.18.85L51.56,58.94a6.38,6.38,0,0,0-3.18,5.51V78.68a6.38,6.38,0,0,0,3.18,5.51l12.33,7.12a6.48,6.48,0,0,0,6.36,0l12.33-7.12a6.38,6.38,0,0,0,3.18-5.51V64.45a6.38,6.38,0,0,0-3.18-5.51L70.25,51.82A6.38,6.38,0,0,0,67.07,51Z"/></svg>