<svg id="Layer_1" data-name="Layer 1" xmlns="http://www.w3.org/2000/svg" viewBox="0 0 134.14 143.13"><defs><style>.cls-1{fill:#f85068;}</style></defs><title>preloader</title><path class="cls-1" d="M67.07,132a29.28,29.28,0,0,1-14.65-3.91l-27-15.6A29.37,29.37,0,0,1,10.76,87.16V56A29.37,29.37,0,0,1,25.41,30.6l27-15.6a29.37,29.37,0,0,1,29.29,0l27,15.6A29.37,29.37,0,0,1,123.38,56v31.2a29.37,29.37,0,0,1-14.65,25.37l-27,15.6A29.28,29.28,0,0,1,67.07,132Zm0-118a26.29,26.29,0,0,0-13.15,3.51l-27,15.6A26.37,26.37,0,0,0,13.76,56v31.2a26.37,26.37,0,0,0,13.15,22.77l27,15.6a26.36,26.36,0,0,0,26.29,0l27-15.6a26.37,26.37,0,0,0,13.15-22.77V56a26.36,26.36,0,0,0-13.15-22.77l-27-15.6A26.29,26.29,0,0,0,67.07,14.08Z"/></svg>