<svg id="Layer_1" data-name="Layer 1" xmlns="http://www.w3.org/2000/svg" viewBox="0 0 134.14 143.13"><defs><style>.cls-1{fill:#7c397f;}</style></defs><title>preloader</title><path class="cls-1" d="M67.07,143.13a37.92,37.92,0,0,1-19-5.07L19,121.24A38,38,0,0,1,0,88.39V54.74A38,38,0,0,1,19,21.89L48.1,5.07A38,38,0,0,1,86,5.07l29.14,16.82a38,38,0,0,1,19,32.85V88.39a38,38,0,0,1-19,32.85L86,138.06A37.92,37.92,0,0,1,67.07,143.13ZM67.07,3A34.93,34.93,0,0,0,49.6,7.66L20.47,24.49A35,35,0,0,0,3,54.74V88.39a35,35,0,0,0,17.47,30.25L49.6,135.46a35,35,0,0,0,34.94,0l29.14-16.82a35,35,0,0,0,17.47-30.25V54.74a35,35,0,0,0-17.47-30.26L84.54,7.66A34.93,34.93,0,0,0,67.07,3Z"/></svg>