<svg id="Layer_1" data-name="Layer 1" xmlns="http://www.w3.org/2000/svg" viewBox="0 0 134.14 143.13"><defs><style>.cls-1{fill:#f85068;}.cls-2{fill:#7c397f;}</style></defs><title>preloader</title><path class="cls-1" d="M67,79.84a3,3,0,0,1-1.47-.39L61,76.78a3,3,0,0,1-1.47-2.55V68.9A3,3,0,0,1,61,66.34l4.62-2.67a2.95,2.95,0,0,1,2.95,0l4.62,2.67a3,3,0,0,1,1.47,2.55v5.33a3,3,0,0,1-1.47,2.55l-4.62,2.67A3,3,0,0,1,67,79.84Z"/><path class="cls-2" d="M80.61,63.56a1.5,1.5,0,0,0-2-.55l-4.15,2.4a4.41,4.41,0,0,0-.53-.36l-4.62-2.67a4.52,4.52,0,0,0-4.45,0L60.2,65A4.46,4.46,0,0,0,58,68.9v5.33a4.41,4.41,0,0,0,0,.64l-4,2.28a1.5,1.5,0,1,0,1.5,2.6l3.86-2.23a4.4,4.4,0,0,0,.76.57l4.62,2.67a4.45,4.45,0,0,0,4.45,0l4.62-2.67a4.46,4.46,0,0,0,2.22-3.85V68.9A4.4,4.4,0,0,0,76,68l4.06-2.35A1.5,1.5,0,0,0,80.61,63.56Zm-7.5,10.67a1.45,1.45,0,0,1-.72,1.25l-4.62,2.67a1.48,1.48,0,0,1-1.45,0L61.7,75.48A1.45,1.45,0,0,1,61,74.23V68.9a1.45,1.45,0,0,1,.72-1.25L66.32,65a1.45,1.45,0,0,1,1.45,0l4.62,2.67a1.45,1.45,0,0,1,.72,1.25Z"/></svg>