<?xml version="1.0" encoding="utf-8"?>
<!-- Generator: Adobe Illustrator 21.0.0, SVG Export Plug-In . SVG Version: 6.00 Build 0)  -->
<svg version="1.1" id="Layer_1" xmlns="http://www.w3.org/2000/svg" xmlns:xlink="http://www.w3.org/1999/xlink" x="0px" y="0px"
	 viewBox="0 0 876 276.2" style="enable-background:new 0 0 876 276.2;" xml:space="preserve">
<style type="text/css">
	.st0{fill:#F85068;}
</style>
<g>
	<path class="st0" d="M63.6,250.1c-33.5,0-60.7-9.6-60.7-21.5v19.2c0,14.2,27.2,25.7,60.7,25.7s60.7-11.5,60.7-25.7v-19.2
		C124.3,240.5,97.1,250.1,63.6,250.1z"/>
	<path class="st0" d="M812.9,250.1c-33.5,0-60.7-9.6-60.7-21.5v19.2c0,14.2,27.2,25.7,60.7,25.7s60.7-11.5,60.7-25.7v-19.2
		C873.6,240.5,846.4,250.1,812.9,250.1z"/>
	<path class="st0" d="M706.3,73.1c-21.6,0-39-4.1-39-9.1v13.1c0,6,17.5,10.9,39,10.9c21.6,0,39-4.9,39-10.9V64
		C745.3,69,727.8,73.1,706.3,73.1z"/>
	<path class="st0" d="M170.2,73.1c-21.6,0-39-4.1-39-9.1v13.1c0,6,17.5,10.9,39,10.9c21.6,0,39-4.9,39-10.9V64
		C209.3,69,191.8,73.1,170.2,73.1z"/>
	<path class="st0" d="M438.3,169.7c-91,0-164.9-18.5-164.9-41.3v18.8c0,25.2,73.8,45.6,164.9,45.6s164.9-20.4,164.9-45.6v-18.8
		C603.1,151.2,529.3,169.7,438.3,169.7z"/>
	<path class="st0" d="M438.3,239.1c-132,0-239-36.2-239-80.9v26.1c0,49.3,107,89.2,239,89.2s239-40,239-89.2v-26.1
		C677.2,202.9,570.2,239.1,438.3,239.1z"/>
</g>
</svg>
