<?xml version="1.0" encoding="utf-8"?>
<!-- Generator: Adobe Illustrator 21.0.0, SVG Export Plug-In . SVG Version: 6.00 Build 0)  -->
<svg version="1.1" id="Layer_1" xmlns="http://www.w3.org/2000/svg" xmlns:xlink="http://www.w3.org/1999/xlink" x="0px" y="0px"
	 viewBox="0 0 876 276.2" style="enable-background:new 0 0 876 276.2;" xml:space="preserve">
<style type="text/css">
	.st0{fill:none;stroke:#7C397F;stroke-width:3;stroke-linecap:round;stroke-linejoin:round;stroke-miterlimit:10;}
	.st1{opacity:0.2;}
	.st2{fill:none;stroke:#7C397F;stroke-width:3;stroke-linecap:round;stroke-linejoin:round;}
	.st3{fill:none;stroke:#7C397F;stroke-width:3;stroke-linecap:round;stroke-linejoin:round;stroke-dasharray:5.6024,9.3374;}
	.st4{fill:none;stroke:#7C397F;stroke-width:3;stroke-linecap:round;stroke-linejoin:round;stroke-dasharray:6.3565,10.5942;}
	
		.st5{opacity:0.2;fill:none;stroke:#7C397F;stroke-width:3;stroke-linecap:round;stroke-linejoin:round;stroke-miterlimit:10;stroke-dasharray:6,10;}
</style>
<ellipse class="st0" cx="438.3" cy="128.4" rx="164.9" ry="41.3"/>
<path class="st0" d="M603.1,147.1c0,25.2-73.8,45.6-164.9,45.6s-164.9-20.4-164.9-45.6"/>
<line class="st0" x1="273.4" y1="147.1" x2="273.4" y2="128.4"/>
<line class="st0" x1="603.1" y1="128.4" x2="603.1" y2="147.1"/>
<ellipse class="st0" cx="438.3" cy="158.2" rx="239" ry="80.9"/>
<path class="st0" d="M677.2,184.3c0,49.3-107,89.2-239,89.2s-239-40-239-89.2"/>
<line class="st0" x1="199.3" y1="184.3" x2="199.3" y2="158.2"/>
<line class="st0" x1="677.2" y1="158.2" x2="677.2" y2="184.3"/>
<ellipse class="st0" cx="63.6" cy="228.6" rx="60.7" ry="21.5"/>
<path class="st0" d="M124.3,247.8c0,14.2-27.2,25.7-60.7,25.7S2.9,262,2.9,247.8"/>
<line class="st0" x1="124.3" y1="247.8" x2="124.3" y2="228.6"/>
<line class="st0" x1="2.9" y1="247.8" x2="2.9" y2="228.6"/>
<g>
	<ellipse class="st0" cx="812.9" cy="228.6" rx="60.7" ry="21.5"/>
	<path class="st0" d="M873.6,247.8c0,14.2-27.2,25.7-60.7,25.7s-60.7-11.5-60.7-25.7"/>
	<line class="st0" x1="873.6" y1="247.8" x2="873.6" y2="228.6"/>
	<line class="st0" x1="752.2" y1="247.8" x2="752.2" y2="228.6"/>
</g>
<ellipse class="st0" cx="706.3" cy="64" rx="39" ry="9.1"/>
<path class="st0" d="M745.3,77.1c0,6-17.5,10.9-39,10.9s-39-4.9-39-10.9"/>
<line class="st0" x1="745.3" y1="77.1" x2="745.3" y2="64"/>
<line class="st0" x1="667.2" y1="77.1" x2="667.2" y2="64"/>
<g>
	<ellipse class="st0" cx="170.2" cy="64" rx="39" ry="9.1"/>
	<path class="st0" d="M209.3,77.1c0,6-17.5,10.9-39,10.9s-39-4.9-39-10.9"/>
	<line class="st0" x1="209.3" y1="77.1" x2="209.3" y2="64"/>
	<line class="st0" x1="131.2" y1="77.1" x2="131.2" y2="64"/>
</g>
<g class="st1">
	<g>
		<path class="st2" d="M288,94.1c0,0-0.7-0.8-2.1-2.1"/>
		<path class="st3" d="M278.9,85.9c-12.4-9.6-36.5-23.1-65.8-14.2"/>
		<path class="st2" d="M208.6,73.3c-0.9,0.3-1.9,0.7-2.8,1.1"/>
	</g>
</g>
<g class="st1">
	<g>
		<path class="st2" d="M588.5,94.1c0,0,0.7-0.8,2.1-2.1"/>
		<path class="st3" d="M597.6,85.9c12.4-9.6,36.5-23.1,65.8-14.2"/>
		<path class="st2" d="M667.9,73.3c0.9,0.3,1.9,0.7,2.8,1.1"/>
	</g>
</g>
<g class="st1">
	<g>
		<path class="st2" d="M763.7,216c0,0-0.6-0.9-1.8-2.4"/>
		<path class="st4" d="M754.7,205.9c-12.2-11.4-37-26.9-74-15.8"/>
		<path class="st2" d="M675.7,191.7c-0.9,0.3-1.9,0.7-2.8,1"/>
	</g>
</g>
<g class="st1">
	<g>
		<path class="st2" d="M115,216c0,0,0.6-0.9,1.8-2.4"/>
		<path class="st4" d="M124,205.9c12.2-11.4,37-26.9,74-15.8"/>
		<path class="st2" d="M203,191.7c0.9,0.3,1.9,0.7,2.8,1"/>
	</g>
</g>
<line class="st5" x1="438.3" y1="107.5" x2="438.3" y2="-2.6"/>
</svg>
